<svg xmlns="http://www.w3.org/2000/svg" width="16" height="16" viewBox="0 0 15.3861 15.3858" fill="none">
  <path d="M8.64762 4.28302C9.16008 3.61725 10.2156 3.66488 10.6505 4.4256L12.1291 7.01251C12.1437 7.03807 12.165 7.05934 12.1906 7.07403L14.7775 8.55255C15.589 9.01646 15.589 10.1863 14.7775 10.6502L12.1906 12.1287C12.165 12.1434 12.1438 12.1647 12.1291 12.1902L10.6505 14.7772C10.1866 15.5887 9.0168 15.5887 8.55289 14.7772L7.07438 12.1902C7.05968 12.1647 7.03841 12.1434 7.01285 12.1287L4.42594 10.6502C3.61456 10.1863 3.61449 9.01645 4.42594 8.55255L7.01285 7.07403C7.03845 7.05934 7.05968 7.03811 7.07438 7.01251L8.55289 4.4256L8.64762 4.28302ZM8.37711 7.75665C8.22948 8.01496 8.0153 8.22914 7.75699 8.37677L5.61246 9.60138L7.75699 10.826C8.01526 10.9736 8.22949 11.1879 8.37711 11.4461L9.60172 13.5897L10.8263 11.4461C10.974 11.1878 11.1882 10.9736 11.4464 10.826L13.59 9.60138L11.4464 8.37677C11.1882 8.22914 10.9739 8.01492 10.8263 7.75665L9.60172 5.61212L8.37711 7.75665ZM2.89078 0.36798C3.23227 -0.122695 3.97112 -0.122625 4.31266 0.36798L4.38004 0.480285L5.09391 1.90802C5.13743 1.99506 5.20805 2.06564 5.29508 2.10919L6.72281 2.82306C7.36377 3.14373 7.36377 4.05902 6.72281 4.3797L5.29508 5.09357C5.20803 5.1371 5.13745 5.20769 5.09391 5.29474L4.38004 6.72247C4.05937 7.36343 3.14408 7.36342 2.8234 6.72247L2.10953 5.29474C2.06598 5.20771 1.99541 5.13709 1.90836 5.09357L0.480627 4.3797C-0.160181 4.05897 -0.160237 3.14373 0.480627 2.82306L1.90836 2.10919C1.99545 2.06565 2.06599 1.99511 2.10953 1.90802L2.8234 0.480285L2.89078 0.36798ZM3.45133 2.57892C3.26264 2.9563 2.95664 3.2623 2.57926 3.45099L2.27848 3.60138L2.57926 3.75177C2.95659 3.94044 3.26264 4.24652 3.45133 4.62384L3.60172 4.92462L3.75211 4.62384C3.9408 4.2465 4.24684 3.94045 4.62418 3.75177L4.92496 3.60138L4.62418 3.45099C4.24686 3.26229 3.94078 2.95625 3.75211 2.57892L3.60172 2.27814L3.45133 2.57892Z" fill="#8D83D2"/>
</svg>
