<svg xmlns="http://www.w3.org/2000/svg" width="16" height="16" viewBox="0 0 16 16" fill="none">
  <path fill-rule="evenodd" clip-rule="evenodd" d="M2.51992 2.51992C3.97333 1.06652 5.94457 0.25 8 0.25C10.0554 0.25 12.0267 1.06652 13.4801 2.51992C14.9335 3.97333 15.75 5.94457 15.75 8C15.75 10.0554 14.9335 12.0267 13.4801 13.4801C12.0267 14.9335 10.0554 15.75 8 15.75C5.94457 15.75 3.97333 14.9335 2.51992 13.4801C1.06652 12.0267 0.25 10.0554 0.25 8C0.25 5.94457 1.06652 3.97333 2.51992 2.51992ZM8 1.75C6.3424 1.75 4.75268 2.40848 3.58058 3.58058C2.40848 4.75268 1.75 6.3424 1.75 8C1.75 9.6576 2.40848 11.2473 3.58058 12.4194C4.75269 13.5915 6.3424 14.25 8 14.25C9.6576 14.25 11.2473 13.5915 12.4194 12.4194C13.5915 11.2473 14.25 9.6576 14.25 8C14.25 6.3424 13.5915 4.75268 12.4194 3.58058C11.2473 2.40848 9.6576 1.75 8 1.75ZM11.4605 5.40799C11.7874 5.66229 11.8463 6.13349 11.592 6.46046L8.09201 10.9605C7.95994 11.1303 7.76131 11.2352 7.5466 11.2486C7.3319 11.2619 7.12179 11.1824 6.96967 11.0303L4.46967 8.53033C4.17678 8.23744 4.17678 7.76256 4.46967 7.46967C4.76256 7.17678 5.23744 7.17678 5.53033 7.46967L7.42958 9.36892L10.408 5.53954C10.6623 5.21258 11.1335 5.15368 11.4605 5.40799Z" fill="#515358"/>
</svg>
