<svg width="56" height="40" viewBox="0 0 56 40" fill="none" xmlns="http://www.w3.org/2000/svg">
<path fill-rule="evenodd" clip-rule="evenodd" d="M34.25 2C29.8317 2 26.25 5.58172 26.25 10C26.25 14.4183 29.8317 18 34.25 18C36.4474 18 38.4379 17.1141 39.8838 15.6799C39.8911 15.6719 39.8986 15.664 39.9063 15.6563C39.914 15.6486 39.9219 15.6411 39.9299 15.6338C41.3641 14.1879 42.25 12.1974 42.25 10C42.25 5.58172 38.6683 2 34.25 2ZM34.25 19.5C36.6034 19.5 38.7569 18.6443 40.4163 17.227L46.2197 23.0303C46.5125 23.3232 46.9874 23.3232 47.2803 23.0303C47.5732 22.7374 47.5732 22.2625 47.2803 21.9696L41.477 16.1663C42.8943 14.5069 43.75 12.3534 43.75 10C43.75 4.75329 39.4967 0.5 34.25 0.5C29.0033 0.5 24.75 4.75329 24.75 10C24.75 15.2467 29.0033 19.5 34.25 19.5ZM11.75 5.5C10.888 5.5 10.0614 5.84241 9.4519 6.4519C8.84241 7.0614 8.5 7.88805 8.5 8.75V13.75V36.25C8.5 37.112 8.84241 37.9386 9.4519 38.5481C10.0614 39.1576 10.888 39.5 11.75 39.5H41.75C42.612 39.5 43.4386 39.1576 44.0481 38.5481C44.6576 37.9386 45 37.112 45 36.25V28.75C45 28.3358 44.6642 28 44.25 28C43.8358 28 43.5 28.3358 43.5 28.75V36.25C43.5 36.7141 43.3156 37.1592 42.9874 37.4874C42.6592 37.8156 42.2141 38 41.75 38H11.75C11.2859 38 10.8408 37.8156 10.5126 37.4874C10.1844 37.1592 10 36.7141 10 36.25V14.5H20.5C20.9142 14.5 21.25 14.1642 21.25 13.75C21.25 13.3358 20.9142 13 20.5 13H10V8.75C10 8.28587 10.1844 7.84075 10.5126 7.51256C10.8408 7.18437 11.2859 7 11.75 7H19.25C19.6642 7 20 6.66421 20 6.25C20 5.83579 19.6642 5.5 19.25 5.5H11.75ZM22.2803 24.2803C22.5732 23.9874 22.5732 23.5126 22.2803 23.2197C21.9874 22.9268 21.5126 22.9268 21.2197 23.2197L17.4697 26.9697C17.1768 27.2626 17.1768 27.7374 17.4697 28.0303L21.2197 31.7803C21.5126 32.0732 21.9874 32.0732 22.2803 31.7803C22.5732 31.4874 22.5732 31.0126 22.2803 30.7197L19.0607 27.5L22.2803 24.2803ZM31.2197 23.2197C31.5126 22.9268 31.9874 22.9268 32.2803 23.2197L36.0303 26.9697C36.3232 27.2626 36.3232 27.7374 36.0303 28.0303L32.2803 31.7803C31.9874 32.0732 31.5126 32.0732 31.2197 31.7803C30.9268 31.4874 30.9268 31.0126 31.2197 30.7197L34.4393 27.5L31.2197 24.2803C30.9268 23.9874 30.9268 23.5126 31.2197 23.2197ZM28.7115 23.9872C28.8425 23.5942 28.6301 23.1695 28.2372 23.0385C27.8442 22.9075 27.4195 23.1199 27.2885 23.5128L24.7885 31.0128C24.6575 31.4058 24.8699 31.8305 25.2628 31.9615C25.6558 32.0925 26.0805 31.8801 26.2115 31.4872L28.7115 23.9872Z" fill="#D3D5DA"/>
</svg>
