<svg xmlns="http://www.w3.org/2000/svg" width="72" height="72" viewBox="0 0 72 72" fill="none">
  <path fill-rule="evenodd" clip-rule="evenodd" d="M65 19.973C65.2652 19.973 65.5196 19.8676 65.7071 19.6801C65.8946 19.4926 66 19.2382 66 18.973C66 18.7078 65.8946 18.4534 65.7071 18.2659C65.5196 18.0784 65.2652 17.973 65 17.973H59C58.7348 17.973 58.4804 18.0784 58.2929 18.2659C58.1054 18.4534 58 18.7078 58 18.973C58 19.2382 58.1054 19.4926 58.2929 19.6801C58.4804 19.8676 58.7348 19.973 59 19.973H65ZM51 4C51 3.73478 50.8946 3.48043 50.7071 3.29289C50.5196 3.10536 50.2652 3 50 3C49.7348 3 49.4804 3.10536 49.2929 3.29289C49.1054 3.48043 49 3.73478 49 4V9.973C49 10.2382 49.1054 10.4926 49.2929 10.6801C49.4804 10.8676 49.7348 10.973 50 10.973C50.2652 10.973 50.5196 10.8676 50.7071 10.6801C50.8946 10.4926 51 10.2382 51 9.973V4ZM61.707 8.68C61.8025 8.58775 61.8787 8.47741 61.9311 8.3554C61.9835 8.2334 62.0111 8.10218 62.0123 7.9694C62.0134 7.83662 61.9881 7.70494 61.9378 7.58205C61.8875 7.45915 61.8133 7.3475 61.7194 7.2536C61.6255 7.15971 61.5139 7.08546 61.391 7.03518C61.2681 6.9849 61.1364 6.95959 61.0036 6.96075C60.8708 6.9619 60.7396 6.98949 60.6176 7.0419C60.4956 7.09431 60.3852 7.17049 60.293 7.266L56.293 11.266C56.1953 11.3577 56.1169 11.468 56.0627 11.5905C56.0084 11.7131 55.9793 11.8452 55.9772 11.9792C55.975 12.1132 55.9998 12.2462 56.05 12.3705C56.1003 12.4947 56.175 12.6075 56.2697 12.7023C56.3644 12.7971 56.4772 12.8719 56.6014 12.9222C56.7256 12.9725 56.8586 12.9974 56.9926 12.9953C57.1265 12.9932 57.2587 12.9643 57.3813 12.9101C57.5039 12.8559 57.6143 12.7777 57.706 12.68L61.707 8.68ZM11.9609 16.5703C11.3269 16.5703 10.7188 16.8222 10.2705 17.2705C9.82218 17.7188 9.57031 18.3269 9.57031 18.9609V46.0859C9.57031 46.72 9.82218 47.328 10.2705 47.7764C10.7188 48.2247 11.3269 48.4766 11.9609 48.4766H18.7422C19.2945 48.4766 19.7422 48.9243 19.7422 49.4766V57.6484L24.9234 53.7625C25.3653 53.4311 25.9921 53.5207 26.3234 53.9625C26.6548 54.4043 26.5653 55.0311 26.1234 55.3625L19.3422 60.4484C19.0392 60.6757 18.6338 60.7123 18.295 60.5429C17.9562 60.3735 17.7422 60.0272 17.7422 59.6484V50.4766H11.9609C10.7965 50.4766 9.6797 50.014 8.8563 49.1906C8.03289 48.3672 7.57031 47.2504 7.57031 46.0859V18.9609C7.57031 17.7965 8.03289 16.6797 8.8563 15.8563C9.6797 15.0329 10.7965 14.5703 11.9609 14.5703H49.2578C50.4223 14.5703 51.5391 15.0329 52.3625 15.8563C53.1859 16.6797 53.6484 17.7965 53.6484 18.9609V29.1328C53.6484 29.6851 53.2007 30.1328 52.6484 30.1328C52.0962 30.1328 51.6484 29.6851 51.6484 29.1328V18.9609C51.6484 18.3269 51.3966 17.7188 50.9482 17.2705C50.4999 16.8222 49.8918 16.5703 49.2578 16.5703H11.9609ZM18.7422 24.7422C18.1899 24.7422 17.7422 25.1899 17.7422 25.7422C17.7422 26.2945 18.1899 26.7422 18.7422 26.7422H42.4766C43.0288 26.7422 43.4766 26.2945 43.4766 25.7422C43.4766 25.1899 43.0288 24.7422 42.4766 24.7422H18.7422ZM17.7422 35.9141C17.7422 35.3618 18.1899 34.9141 18.7422 34.9141H25.5234C26.0757 34.9141 26.5234 35.3618 26.5234 35.9141C26.5234 36.4663 26.0757 36.9141 25.5234 36.9141H18.7422C18.1899 36.9141 17.7422 36.4663 17.7422 35.9141ZM32.3047 34.9141C31.7524 34.9141 31.3047 35.3618 31.3047 35.9141V56.2578C31.3047 56.8101 31.7524 57.2578 32.3047 57.2578H42.0623L51.9413 67.1368C52.2273 67.4228 52.6574 67.5083 53.0311 67.3536C53.4048 67.1988 53.6484 66.8342 53.6484 66.4297V57.2578H59.4297C59.982 57.2578 60.4297 56.8101 60.4297 56.2578V35.9141C60.4297 35.3618 59.982 34.9141 59.4297 34.9141H32.3047ZM42.4766 55.2578H33.3047V36.9141H58.4297V55.2578H52.6484C52.0962 55.2578 51.6484 55.7055 51.6484 56.2578V64.0155L43.1837 55.5507C42.9961 55.3632 42.7418 55.2578 42.4766 55.2578ZM38.0859 42.6953C38.0859 42.143 38.5337 41.6953 39.0859 41.6953H52.6484C53.2007 41.6953 53.6484 42.143 53.6484 42.6953C53.6484 43.2476 53.2007 43.6953 52.6484 43.6953H39.0859C38.5337 43.6953 38.0859 43.2476 38.0859 42.6953ZM39.0859 48.4766C38.5337 48.4766 38.0859 48.9243 38.0859 49.4766C38.0859 50.0288 38.5337 50.4766 39.0859 50.4766H52.6484C53.2007 50.4766 53.6484 50.0288 53.6484 49.4766C53.6484 48.9243 53.2007 48.4766 52.6484 48.4766H39.0859Z" fill="#515358"/>
</svg>
