<svg xmlns="http://www.w3.org/2000/svg" width="24" height="24" viewBox="0 0 24 24" fill="none">
<path fill-rule="evenodd" clip-rule="evenodd" d="M12 20.5C16.6944 20.5 20.5 16.6944 20.5 12C20.5 7.30558 16.6944 3.5 12 3.5C7.30558 3.5 3.5 7.30558 3.5 12C3.5 16.6944 7.30558 20.5 12 20.5ZM12 22C17.5228 22 22 17.5228 22 12C22 6.47715 17.5228 2 12 2C6.47715 2 2 6.47715 2 12C2 17.5228 6.47715 22 12 22ZM13 8C13 8.55228 12.5523 9 12 9C11.4477 9 11 8.55228 11 8C11 7.44772 11.4477 7 12 7C12.5523 7 13 7.44772 13 8ZM12.75 11.75C12.75 11.3358 12.4142 11 12 11C11.5858 11 11.25 11.3358 11.25 11.75V11.7609V11.7718V11.7827V11.7936V11.8046V11.8155V11.8265V11.8375V11.8485V11.8596V11.8706V11.8817V11.8928V11.9039V11.915V11.9261V11.9373V11.9484V11.9596V11.9708V11.982V11.9932V12.0045V12.0157V12.027V12.0383V12.0496V12.0609V12.0722V12.0835V12.0949V12.1062V12.1176V12.129V12.1404V12.1518V12.1632V12.1747V12.1861V12.1976V12.2091V12.2206V12.2321V12.2436V12.2551V12.2666V12.2782V12.2897V12.3013V12.3129V12.3244V12.336V12.3476V12.3593V12.3709V12.3825V12.3942V12.4058V12.4175V12.4292V12.4408V12.4525V12.4642V12.4759V12.4877V12.4994V12.5111V12.5229V12.5346V12.5464V12.5581V12.5699V12.5817V12.5935V12.6052V12.617V12.6288V12.6406V12.6525V12.6643V12.6761V12.6879V12.6998V12.7116V12.7235V12.7353V12.7472V12.7591V12.7709V12.7828V12.7947V12.8066V12.8184V12.8303V12.8422V12.8541V12.866V12.8779V12.8898V12.9017V12.9136V12.9256V12.9375V12.9494V12.9613V12.9732V12.9852V12.9971V13.009V13.0209V13.0329V13.0448V13.0567V13.0687V13.0806V13.0925V13.1045V13.1164V13.1283V13.1403V13.1522V13.1641V13.1761V13.188V13.1999V13.2118V13.2238V13.2357V13.2476V13.2595V13.2715V13.2834V13.2953V13.3072V13.3191V13.331V13.3429V13.3549V13.3668V13.3786V13.3905V13.4024V13.4143V13.4262V13.4381V13.45V13.4618V13.4737V13.4856V13.4974V13.5093V13.5211V13.5329V13.5448V13.5566V13.5684V13.5803V13.5921V13.6039V13.6157V13.6275V13.6393V13.651V13.6628V13.6746V13.6863V13.6981V13.7098V13.7216V13.7333V13.745V13.7567V13.7684V13.7801V13.7918V13.8035V13.8152V13.8268V13.8385V13.8501V13.8617V13.8734V13.885V13.8966V13.9082V13.9197V13.9313V13.9429V13.9544V13.966V13.9775V13.989V14.0005V14.012V14.0235V14.035V14.0464V14.0579V14.0693V14.0807V14.0921V14.1035V14.1149V14.1263V14.1376V14.149V14.1603V14.1716V14.1829V14.1942V14.2055V14.2167V14.228V14.2392V14.2504V14.2616V14.2728V14.284V14.2951V14.3063V14.3174V14.3285V14.3396V14.3507V14.3617V14.3728V14.3838V14.3948V14.4058V14.4168V14.4277V14.4387V14.4496V14.4605V14.4714V14.4823V14.4931V14.5039V14.5148V14.5255V14.5363V14.5471V14.5578V14.5685V14.5792V14.5899V14.6006V14.6112V14.6218V14.6324V14.643V14.6536V14.6641V14.6746V14.6851V14.6956V14.7061V14.7165V14.7269V14.7373V14.7477V14.758V14.7684V14.7787V14.7889V14.7992V14.8094V14.8196V14.8298V14.84V14.8501V14.8603V14.8704V14.8804V14.8905V14.9005V14.9105V14.9205V14.9304V14.9403V14.9502V14.9601V14.97V14.9798V14.9896V14.9994V15.0091V15.0188V15.0285V15.0382V15.0478V15.0575V15.067V15.0766V15.0861V15.0957V15.1051V15.1146V15.124V15.1334V15.1428V15.1521V15.1614V15.1707V15.18V15.1892V15.1984V15.2076V15.2167V15.2258V15.2349V15.244V15.253V15.262V15.2709V15.2799V15.2888V15.2976V15.3065V15.3153V15.3241V15.3328V15.3415V15.3502V15.3589V15.3675V15.3761V15.3846V15.3931V15.4016V15.4101V15.4185V15.4269V15.4353V15.4436V15.4519V15.4602V15.4684V15.4766V15.4847V15.4929V15.5009V15.509V15.517V15.525V15.533V15.5409V15.5488V15.5566V15.5644V15.5722V15.5799V15.5876V15.5953V15.6029V15.6105V15.6181V15.6256V15.6331V15.6405V15.6479V15.6553V15.6626V15.6699V15.6772V15.6844V15.6916V15.6987V15.7059V15.7129V15.7199V15.7269V15.7339V15.7408V15.7477V15.7545V15.7613V15.7681V15.7748V15.7814V15.7881V15.7947V15.8012V15.8077V15.8142V15.8206V15.827V15.8334V15.8397V15.8459V15.8522V15.8583V15.8645V15.8706V15.8766V15.8826V15.8886V15.8945V15.9004V15.9063V15.912V15.9178V15.9235V15.9292V15.9348V15.9404V15.9459V15.9514V15.9568V15.9622V15.9676V15.9729V15.9782V15.9834V15.9886V15.9937V15.9988V16.0038V16.0088V16.0137V16.0186V16.0235V16.0283V16.033V16.0377V16.0424V16.047V16.0516V16.0561V16.0606V16.065V16.0694V16.0737V16.078V16.0822V16.0864V16.0905V16.0946V16.0986V16.1026V16.1066V16.1105V16.1143V16.1181V16.1218V16.1255V16.1291V16.1327V16.1363V16.1397V16.1432V16.1466V16.1499V16.1532V16.1564V16.1596V16.1627V16.1658V16.1688V16.1717V16.1747V16.1775V16.1803V16.1831V16.1858V16.1884V16.191V16.1936V16.1961V16.1985V16.2009V16.2032V16.2055V16.2077V16.2099V16.212V16.214V16.216V16.218V16.2198V16.2217V16.2234V16.2252V16.2268V16.2284V16.23V16.2315V16.2329V16.2343V16.2356V16.2369V16.2381V16.2392V16.2403V16.2414V16.2424V16.2433V16.2441V16.2449V16.2457V16.2464V16.247V16.2476V16.2481V16.2485V16.2489V16.2492V16.2495V16.2497V16.2499V16.25L12 16.25H11.25C11.25 16.6642 11.5858 17 12 17C12.4142 17 12.75 16.6642 12.75 16.25H12L12.75 16.25V16.2499V16.2497V16.2495V16.2492V16.2489V16.2485V16.2481V16.2476V16.247V16.2464V16.2457V16.2449V16.2441V16.2433V16.2424V16.2414V16.2403V16.2392V16.2381V16.2369V16.2356V16.2343V16.2329V16.2315V16.23V16.2284V16.2268V16.2252V16.2234V16.2217V16.2198V16.218V16.216V16.214V16.212V16.2099V16.2077V16.2055V16.2032V16.2009V16.1985V16.1961V16.1936V16.191V16.1884V16.1858V16.1831V16.1803V16.1775V16.1747V16.1717V16.1688V16.1658V16.1627V16.1596V16.1564V16.1532V16.1499V16.1466V16.1432V16.1397V16.1363V16.1327V16.1291V16.1255V16.1218V16.1181V16.1143V16.1105V16.1066V16.1026V16.0986V16.0946V16.0905V16.0864V16.0822V16.078V16.0737V16.0694V16.065V16.0606V16.0561V16.0516V16.047V16.0424V16.0377V16.033V16.0283V16.0235V16.0186V16.0137V16.0088V16.0038V15.9988V15.9937V15.9886V15.9834V15.9782V15.9729V15.9676V15.9622V15.9568V15.9514V15.9459V15.9404V15.9348V15.9292V15.9235V15.9178V15.912V15.9063V15.9004V15.8945V15.8886V15.8826V15.8766V15.8706V15.8645V15.8583V15.8522V15.8459V15.8397V15.8334V15.827V15.8206V15.8142V15.8077V15.8012V15.7947V15.7881V15.7814V15.7748V15.7681V15.7613V15.7545V15.7477V15.7408V15.7339V15.7269V15.7199V15.7129V15.7059V15.6987V15.6916V15.6844V15.6772V15.6699V15.6626V15.6553V15.6479V15.6405V15.6331V15.6256V15.6181V15.6105V15.6029V15.5953V15.5876V15.5799V15.5722V15.5644V15.5566V15.5488V15.5409V15.533V15.525V15.517V15.509V15.5009V15.4929V15.4847V15.4766V15.4684V15.4602V15.4519V15.4436V15.4353V15.4269V15.4185V15.4101V15.4016V15.3931V15.3846V15.3761V15.3675V15.3589V15.3502V15.3415V15.3328V15.3241V15.3153V15.3065V15.2976V15.2888V15.2799V15.2709V15.262V15.253V15.244V15.2349V15.2258V15.2167V15.2076V15.1984V15.1892V15.18V15.1707V15.1614V15.1521V15.1428V15.1334V15.124V15.1146V15.1051V15.0957V15.0861V15.0766V15.067V15.0575V15.0478V15.0382V15.0285V15.0188V15.0091V14.9994V14.9896V14.9798V14.97V14.9601V14.9502V14.9403V14.9304V14.9205V14.9105V14.9005V14.8905V14.8804V14.8704V14.8603V14.8501V14.84V14.8298V14.8196V14.8094V14.7992V14.7889V14.7787V14.7684V14.758V14.7477V14.7373V14.7269V14.7165V14.7061V14.6956V14.6851V14.6746V14.6641V14.6536V14.643V14.6324V14.6218V14.6112V14.6006V14.5899V14.5792V14.5685V14.5578V14.5471V14.5363V14.5255V14.5148V14.5039V14.4931V14.4823V14.4714V14.4605V14.4496V14.4387V14.4277V14.4168V14.4058V14.3948V14.3838V14.3728V14.3617V14.3507V14.3396V14.3285V14.3174V14.3063V14.2951V14.284V14.2728V14.2616V14.2504V14.2392V14.228V14.2167V14.2055V14.1942V14.1829V14.1716V14.1603V14.149V14.1376V14.1263V14.1149V14.1035V14.0921V14.0807V14.0693V14.0579V14.0464V14.035V14.0235V14.012V14.0005V13.989V13.9775V13.966V13.9544V13.9429V13.9313V13.9197V13.9082V13.8966V13.885V13.8734V13.8617V13.8501V13.8385V13.8268V13.8152V13.8035V13.7918V13.7801V13.7684V13.7567V13.745V13.7333V13.7216V13.7098V13.6981V13.6863V13.6746V13.6628V13.651V13.6393V13.6275V13.6157V13.6039V13.5921V13.5803V13.5684V13.5566V13.5448V13.5329V13.5211V13.5093V13.4974V13.4856V13.4737V13.4618V13.45V13.4381V13.4262V13.4143V13.4024V13.3905V13.3786V13.3668V13.3549V13.3429V13.331V13.3191V13.3072V13.2953V13.2834V13.2715V13.2595V13.2476V13.2357V13.2238V13.2118V13.1999V13.188V13.1761V13.1641V13.1522V13.1403V13.1283V13.1164V13.1045V13.0925V13.0806V13.0687V13.0567V13.0448V13.0329V13.0209V13.009V12.9971V12.9852V12.9732V12.9613V12.9494V12.9375V12.9256V12.9136V12.9017V12.8898V12.8779V12.866V12.8541V12.8422V12.8303V12.8184V12.8066V12.7947V12.7828V12.7709V12.7591V12.7472V12.7353V12.7235V12.7116V12.6998V12.6879V12.6761V12.6643V12.6525V12.6406V12.6288V12.617V12.6052V12.5935V12.5817V12.5699V12.5581V12.5464V12.5346V12.5229V12.5111V12.4994V12.4877V12.4759V12.4642V12.4525V12.4408V12.4292V12.4175V12.4058V12.3942V12.3825V12.3709V12.3593V12.3476V12.336V12.3244V12.3129V12.3013V12.2897V12.2782V12.2666V12.2551V12.2436V12.2321V12.2206V12.2091V12.1976V12.1861V12.1747V12.1632V12.1518V12.1404V12.129V12.1176V12.1062V12.0949V12.0835V12.0722V12.0609V12.0496V12.0383V12.027V12.0157V12.0045V11.9932V11.982V11.9708V11.9596V11.9484V11.9373V11.9261V11.915V11.9039V11.8928V11.8817V11.8706V11.8596V11.8485V11.8375V11.8265V11.8155V11.8046V11.7936V11.7827V11.7718V11.7609V11.75Z" fill="#515358"/>
</svg>
