<svg xmlns="http://www.w3.org/2000/svg" width="16" height="16" viewBox="0 0 16 16" fill="none">
<path fill-rule="evenodd" clip-rule="evenodd" d="M11 3C12.3261 3 13.5979 3.52678 14.5355 4.46447C15.4732 5.40215 16 6.67392 16 8C16 9.32608 15.4732 10.5979 14.5355 11.5355C13.5979 12.4732 12.3261 13 11 13H5C3.67392 13 2.40215 12.4732 1.46447 11.5355C0.526784 10.5979 0 9.32608 0 8C0 6.67392 0.526784 5.40215 1.46447 4.46447C2.40215 3.52678 3.67392 3 5 3H11ZM11 4.5H5C4.0875 4.49868 3.21056 4.85379 2.55607 5.48964C1.90159 6.12549 1.5213 6.99181 1.49627 7.90396C1.47123 8.81612 1.80342 9.70199 2.42204 10.3728C3.04066 11.0436 3.8968 11.4463 4.808 11.495L5 11.5H11C11.9125 11.5013 12.7894 11.1462 13.4439 10.5104C14.0984 9.87451 14.4787 9.00819 14.5037 8.09604C14.5288 7.18388 14.1966 6.29801 13.578 5.62721C12.9593 4.95642 12.1032 4.55374 11.192 4.505L11 4.5ZM5 5.75C5.59674 5.75 6.16903 5.98705 6.59099 6.40901C7.01295 6.83097 7.25 7.40326 7.25 8C7.25 8.59674 7.01295 9.16903 6.59099 9.59099C6.16903 10.0129 5.59674 10.25 5 10.25C4.40326 10.25 3.83097 10.0129 3.40901 9.59099C2.98705 9.16903 2.75 8.59674 2.75 8C2.75 7.40326 2.98705 6.83097 3.40901 6.40901C3.83097 5.98705 4.40326 5.75 5 5.75Z" fill="#515358"/>
</svg>
